<?xml version="1.0" encoding="utf-8"?>
<!-- Generator: Adobe Illustrator 19.0.1, SVG Export Plug-In . SVG Version: 6.00 Build 0)  -->
<svg version="1.1" xmlns="http://www.w3.org/2000/svg" xmlns:xlink="http://www.w3.org/1999/xlink" x="0px" y="0px"
	 viewBox="0 0 32 32" enable-background="new 0 0 32 32" xml:space="preserve">
<g id="Layer_6" display="none">
</g>
<g id="Flat" display="none">
	<g display="inline">
		<path fill="#E02F2F" d="M16-0.005c-8.837,0-16,7.163-16,16c0,8.836,7.163,16,16,16s16-7.164,16-16C32,7.158,24.837-0.005,16-0.005
			z"/>
		<path fill="none" stroke="#FF6666" stroke-width="0.5" stroke-miterlimit="10" d="M16,1.353c-8.086,0-14.641,6.555-14.641,14.641
			c0,8.086,6.555,14.641,14.641,14.641s14.641-6.555,14.641-14.641C30.641,7.909,24.086,1.353,16,1.353z"/>
	</g>
	<g display="inline">
		<path fill="#FFFFFF" d="M23.866,19.187V19.06c-1.534-0.818-2.366-2.019-2.366-3.757c0-1.405,0.624-2.632,1.768-3.424l0.052-0.026
			c-0.754-0.92-1.768-1.839-3.329-1.839c-1.092,0-2.002,1.048-3.51,1.048c-1.196,0-1.691-0.997-2.991-0.997
			c-2.704,0-5.383,2.376-5.383,5.468c0,1.636,0.546,4.166,1.768,6.363c0.884,1.61,1.976,2.658,3.199,2.658
			c0.884,0,1.924-0.792,3.173-0.792c1.092,0,2.107,0.716,3.094,0.716c2.367,0,4.551-3.015,4.551-5.033
			C23.892,19.341,23.866,19.264,23.866,19.187z"/>
		<path fill="#FFFFFF" d="M16.427,10.731c1.768-0.537,3.407-1.84,3.407-4.114c0-0.179-0.026-0.409-0.052-0.664l-0.026-0.102
			c-1.794,0.485-3.406,1.865-3.406,4.037c0,0.205,0.026,0.46,0.078,0.741L16.427,10.731L16.427,10.731z"/>
	</g>
</g>
<g id="Flat_copy">
	<g>
		<g>
			<path fill="#FFFFFF" d="M16,31.62c-8.615,0-15.625-7.01-15.625-15.625S7.385,0.37,16,0.37s15.625,7.01,15.625,15.625
				S24.615,31.62,16,31.62z"/>
			<path fill="#E5E5E5" d="M16,0.745c8.409,0,15.25,6.841,15.25,15.25S24.409,31.245,16,31.245S0.75,24.404,0.75,15.995
				S7.591,0.745,16,0.745 M16-0.005c-8.837,0-16,7.163-16,16c0,8.836,7.163,16,16,16s16-7.164,16-16C32,7.158,24.837-0.005,16-0.005
				L16-0.005z"/>
		</g>
	</g>
	<g>
		<path fill="#333333" d="M23.866,19.187V19.06c-1.534-0.818-2.366-2.019-2.366-3.757c0-1.405,0.624-2.632,1.768-3.424l0.052-0.026
			c-0.754-0.92-1.768-1.839-3.329-1.839c-1.092,0-2.002,1.048-3.51,1.048c-1.196,0-1.691-0.997-2.991-0.997
			c-2.704,0-5.383,2.376-5.383,5.468c0,1.636,0.546,4.166,1.768,6.363c0.884,1.61,1.976,2.658,3.199,2.658
			c0.884,0,1.924-0.792,3.173-0.792c1.092,0,2.107,0.716,3.094,0.716c2.367,0,4.551-3.015,4.551-5.033
			C23.892,19.341,23.866,19.264,23.866,19.187z"/>
		<path fill="#333333" d="M16.427,10.731c1.768-0.537,3.407-1.84,3.407-4.114c0-0.179-0.026-0.409-0.052-0.664l-0.026-0.102
			c-1.794,0.485-3.406,1.865-3.406,4.037c0,0.205,0.026,0.46,0.078,0.741L16.427,10.731L16.427,10.731z"/>
	</g>
</g>
</svg>
