<svg data-v-423bf9ae="" xmlns="http://www.w3.org/2000/svg" viewBox="0 0 516.6790582403966 60" class="font"><!----><!----><!----><g data-v-423bf9ae="" id="3b980f82-6696-490c-9e2e-66f3e2e08e0d" fill="black" transform="matrix(5.5658628465905124,0,0,5.5658628465905124,2.1706877952028094,-13.191094786294222)"><path d="M3.25 12.67L3.25 12.67L3.25 12.67Q2.51 12.67 2.30 12.62L2.30 12.62L2.30 12.62Q2.09 12.57 1.94 12.54L1.94 12.54L1.94 12.54Q1.79 12.50 1.75 12.49L1.75 12.49L1.75 12.49Q1.71 12.47 1.62 12.47L1.62 12.47L1.62 12.47Q1.46 12.47 1.32 12.56L1.32 12.56L1.32 12.56Q0.83 12.96 0.03 12.96L0.03 12.96L0.03 12.96Q-0.39 12.96-0.39 12.78L-0.39 12.78L-0.39 12.78Q-0.39 12.59 0.58 10.91L0.58 10.91L0.58 10.91Q1.55 9.23 2.74 7.17L2.74 7.17L2.74 7.17Q3.92 5.11 4.26 4.34L4.26 4.34L4.26 4.34Q4.61 3.57 4.61 3.01L4.61 3.01L4.61 2.90L4.61 2.90Q4.61 2.49 6.94 2.49L6.94 2.49L6.94 2.49Q10.42 2.49 10.42 4.86L10.42 4.86L10.42 4.86Q10.42 6.57 9.25 8.62L9.25 8.62L9.25 8.62Q8.65 9.70 7.84 10.60L7.84 10.60L7.84 10.60Q7.03 11.49 5.82 12.08L5.82 12.08L5.82 12.08Q4.61 12.67 3.25 12.67ZM7.85 7.88L7.85 7.88L7.85 7.88Q8.37 6.87 8.64 6.00L8.64 6.00L8.64 6.00Q8.92 5.12 8.92 4.53L8.92 4.53L8.92 4.53Q8.92 3.93 8.58 3.63L8.58 3.63L8.58 3.63Q8.23 3.32 7.42 3.32L7.42 3.32L7.42 3.32Q6.86 3.32 6.52 3.71L6.52 3.71L6.52 3.71Q5.64 4.82 3.98 7.79L3.98 7.79L3.98 7.79Q2.31 10.77 2.31 11.27L2.31 11.27L2.31 11.27Q2.31 11.83 3.50 11.83L3.50 11.83L3.50 11.83Q4.34 11.83 5.19 11.24L5.19 11.24L5.19 11.24Q6.05 10.65 6.69 9.77L6.69 9.77L6.69 9.77Q7.34 8.88 7.85 7.88ZM15.12 11.93L15.12 11.93L15.15 12.35L15.15 12.35Q15.15 12.57 14.48 12.57L14.48 12.57L14.48 12.57Q13.30 12.57 13.30 12.12L13.30 12.12L13.30 12.12Q13.30 11.68 13.92 10.19L13.92 10.19L13.92 10.19Q14.55 8.71 14.55 8.34L14.55 8.34L14.55 8.34Q14.55 7.60 13.64 7.60L13.64 7.60L13.41 7.62L13.41 7.62Q13.24 7.62 13.24 7.49L13.24 7.49L13.24 7.49Q13.24 7.22 13.45 6.95L13.45 6.95L13.45 6.95Q13.65 6.68 13.96 6.68L13.96 6.68L13.96 6.68Q15.23 6.68 16.24 5.92L16.24 5.92L16.24 5.92Q17.25 5.17 17.25 4.33L17.25 4.33L17.25 4.33Q17.25 3.72 16.88 3.49L16.88 3.49L16.88 3.49Q16.51 3.25 15.86 3.25L15.86 3.25L15.86 3.25Q15.22 3.25 14.88 3.64L14.88 3.64L14.88 3.64Q14.06 4.68 12.23 7.97L12.23 7.97L12.23 7.97Q10.40 11.27 10.18 12.03L10.18 12.03L10.18 12.03Q10.05 12.38 9.53 12.54L9.53 12.54L9.53 12.54Q9.00 12.71 8.50 12.71L8.50 12.71L8.50 12.71Q8.01 12.71 8.01 12.52L8.01 12.52L8.01 12.49L8.01 12.49Q8.01 12.33 8.97 10.70L8.97 10.70L8.97 10.70Q9.94 9.06 11.11 7.05L11.11 7.05L11.11 7.05Q12.28 5.04 12.62 4.27L12.62 4.27L12.62 4.27Q12.96 3.50 12.96 2.97L12.96 2.97L12.96 2.83L12.96 2.83Q12.96 2.45 15.09 2.45L15.09 2.45L15.09 2.45Q17.37 2.45 18.10 2.91L18.10 2.91L18.10 2.91Q18.41 3.11 18.63 3.49L18.63 3.49L18.63 3.49Q18.84 3.86 18.84 4.45L18.84 4.45L18.84 4.45Q18.84 5.04 18.37 5.64L18.37 5.64L18.37 5.64Q17.89 6.24 17.35 6.53L17.35 6.53L17.35 6.53Q16.81 6.82 16.28 6.94L16.28 6.94L16.28 6.94Q15.75 7.07 15.48 7.15L15.48 7.15L15.48 7.15Q15.22 7.24 15.22 7.42L15.22 7.42L15.22 7.42Q15.22 7.53 15.42 7.69L15.42 7.69L15.42 7.69Q15.62 7.85 15.83 8.08L15.83 8.08L15.83 8.08Q16.04 8.30 16.04 8.55L16.04 8.55L16.04 8.55Q16.04 8.81 15.58 10.00L15.58 10.00L15.58 10.00Q15.12 11.20 15.12 11.93ZM22.47 7.73L22.47 7.73L21.28 7.69L21.28 7.69Q20.40 7.69 19.92 8.26L19.92 8.26L19.92 8.26Q19.59 8.68 19.03 9.63L19.03 9.63L19.03 9.63Q18.48 10.58 18.48 11.14L18.48 11.14L18.48 11.14Q18.48 11.66 19.50 11.66L19.50 11.66L19.50 11.66Q20.13 11.66 20.85 11.42L20.85 11.42L20.85 11.42Q22.29 10.95 23.13 9.60L23.13 9.60L23.13 9.60Q23.23 9.48 23.46 9.48L23.46 9.48L23.46 9.48Q23.70 9.48 23.70 9.75L23.70 9.75L23.70 9.75Q23.70 10.02 23.25 10.89L23.25 10.89L23.25 10.89Q22.81 11.76 22.46 12.19L22.46 12.19L22.46 12.19Q22.27 12.42 21.75 12.45L21.75 12.45L21.75 12.45Q21.22 12.47 20.15 12.47L20.15 12.47L18.77 12.47L17.98 12.46L17.60 12.43L17.60 12.43Q17.58 12.43 17.50 12.43L17.50 12.43L17.50 12.43Q17.42 12.43 17.29 12.56L17.29 12.56L17.29 12.56Q16.83 12.96 15.97 12.96L15.97 12.96L15.97 12.96Q15.57 12.96 15.57 12.78L15.57 12.78L15.57 12.74L15.57 12.74Q15.57 12.59 16.54 10.91L16.54 10.91L16.54 10.91Q17.51 9.24 18.70 7.18L18.70 7.18L18.70 7.18Q19.89 5.12 20.23 4.36L20.23 4.36L20.23 4.36Q20.57 3.60 20.57 3.05L20.57 3.05L20.57 2.90L20.57 2.90Q20.57 2.66 23.55 2.66L23.55 2.66L23.55 2.66Q24.53 2.66 25.26 2.69L25.26 2.69L25.26 2.69Q25.47 2.45 26.33 2.45L26.33 2.45L26.33 2.45Q26.70 2.45 26.70 2.63L26.70 2.63L26.70 2.63Q26.70 2.95 26.06 3.93L26.06 3.93L26.06 3.93Q25.42 4.90 24.95 5.25L24.95 5.25L24.95 5.25Q24.79 5.38 24.56 5.38L24.56 5.38L24.56 5.38Q24.32 5.38 24.32 5.28L24.32 5.28L24.32 5.28Q24.32 5.24 24.36 5.17L24.36 5.17L24.36 5.17Q24.58 4.73 24.58 4.19L24.58 4.19L24.58 4.19Q24.58 3.42 23.52 3.42L23.52 3.42L23.52 3.42Q22.88 3.42 22.50 3.75L22.50 3.75L22.50 3.75Q22.13 4.09 21.77 4.69L21.77 4.69L21.77 4.69Q21.41 5.29 21.23 5.73L21.23 5.73L21.23 5.73Q21.06 6.16 21.06 6.27L21.06 6.27L21.06 6.27Q21.06 6.61 21.38 6.69L21.38 6.69L21.38 6.69Q21.71 6.76 22.69 6.76L22.69 6.76L23.73 6.72L23.73 6.72Q23.87 6.72 23.87 6.83L23.87 6.83L23.87 6.83Q23.87 6.93 23.72 7.18L23.72 7.18L23.72 7.18Q23.58 7.42 23.42 7.52L23.42 7.52L23.42 7.52Q23.11 7.73 22.47 7.73ZM24.68 8.82L24.68 8.82L24.68 8.82Q24.58 8.82 24.56 8.69L24.56 8.69L24.56 8.69Q24.56 8.46 24.89 8.15L24.89 8.15L24.89 8.15Q25.23 7.84 25.43 7.76L25.43 7.76L25.43 7.76Q25.63 7.67 26.78 7.64L26.78 7.64L26.98 7.42L26.98 7.42Q31.23 2.51 32.89 2.51L32.89 2.51L32.89 2.51Q33.03 2.49 33.21 2.49L33.21 2.49L33.21 2.49Q34.17 2.49 34.17 2.95L34.17 2.95L34.17 2.95Q34.17 3.04 33.99 3.40L33.99 3.40L33.36 4.66L33.36 4.66Q32.91 5.56 32.49 6.48L32.49 6.48L32.49 6.48Q30.23 11.48 29.86 13.03L29.86 13.03L29.86 13.03Q29.86 13.15 29.58 13.15L29.58 13.15L29.58 13.15Q29.29 13.15 28.88 12.83L28.88 12.83L28.88 12.83Q28.48 12.52 28.48 12.28L28.48 12.28L28.48 12.28Q28.48 11.84 29.16 10.64L29.16 10.64L29.16 10.64Q29.85 9.44 29.85 9.07L29.85 9.07L29.85 9.07Q29.85 8.58 27.94 8.58L27.94 8.58L27.94 8.58Q27.66 8.58 27.08 8.61L27.08 8.61L26.54 9.31L26.54 9.31Q25.56 10.63 24.67 12.57L24.67 12.57L24.67 12.57Q24.51 12.92 23.73 12.92L23.73 12.92L23.73 12.92Q22.95 12.92 22.95 12.70L22.95 12.70L22.95 12.70Q22.95 12.54 23.82 11.35L23.82 11.35L23.82 11.35Q24.70 10.15 25.90 8.69L25.90 8.69L25.90 8.69Q25.69 8.72 25.37 8.75L25.37 8.75L25.37 8.75Q25.05 8.78 24.87 8.80L24.87 8.80L24.87 8.80Q24.70 8.82 24.68 8.82ZM30.49 7.01L30.49 7.01L30.49 7.01Q31.04 6.36 31.31 5.68L31.31 5.68L31.31 5.68Q31.58 5.01 31.58 4.77L31.58 4.77L31.58 4.77Q31.58 4.54 31.35 4.54L31.35 4.54L31.35 4.54Q30.93 4.54 29.96 5.43L29.96 5.43L29.96 5.43Q28.99 6.31 27.86 7.64L27.86 7.64L29.39 7.67L29.39 7.67Q29.95 7.67 30.49 7.01ZM34.54 12.67L34.54 12.67L34.54 12.67Q33.80 12.67 33.59 12.62L33.59 12.62L33.59 12.62Q33.38 12.57 33.23 12.54L33.23 12.54L33.23 12.54Q33.08 12.50 33.04 12.49L33.04 12.49L33.04 12.49Q33.00 12.47 32.91 12.47L32.91 12.47L32.91 12.47Q32.75 12.47 32.61 12.56L32.61 12.56L32.61 12.56Q32.12 12.96 31.32 12.96L31.32 12.96L31.32 12.96Q30.90 12.96 30.90 12.78L30.90 12.78L30.90 12.78Q30.90 12.59 31.87 10.91L31.87 10.91L31.87 10.91Q32.84 9.23 34.03 7.17L34.03 7.17L34.03 7.17Q35.21 5.11 35.55 4.34L35.55 4.34L35.55 4.34Q35.90 3.57 35.90 3.01L35.90 3.01L35.90 2.90L35.90 2.90Q35.90 2.49 38.23 2.49L38.23 2.49L38.23 2.49Q41.71 2.49 41.71 4.86L41.71 4.86L41.71 4.86Q41.71 6.57 40.54 8.62L40.54 8.62L40.54 8.62Q39.94 9.70 39.13 10.60L39.13 10.60L39.13 10.60Q38.32 11.49 37.11 12.08L37.11 12.08L37.11 12.08Q35.90 12.67 34.54 12.67ZM39.14 7.88L39.14 7.88L39.14 7.88Q39.66 6.87 39.94 6.00L39.94 6.00L39.94 6.00Q40.21 5.12 40.21 4.53L40.21 4.53L40.21 4.53Q40.21 3.93 39.87 3.63L39.87 3.63L39.87 3.63Q39.52 3.32 38.71 3.32L38.71 3.32L38.71 3.32Q38.15 3.32 37.81 3.71L37.81 3.71L37.81 3.71Q36.93 4.82 35.27 7.79L35.27 7.79L35.27 7.79Q33.60 10.77 33.60 11.27L33.60 11.27L33.60 11.27Q33.60 11.83 34.79 11.83L34.79 11.83L34.79 11.83Q35.63 11.83 36.48 11.24L36.48 11.24L36.48 11.24Q37.34 10.65 37.98 9.77L37.98 9.77L37.98 9.77Q38.63 8.88 39.14 7.88ZM43.68 8.82L43.68 8.82L43.68 8.82Q43.58 8.82 43.55 8.69L43.55 8.69L43.55 8.69Q43.55 8.46 43.89 8.15L43.89 8.15L43.89 8.15Q44.23 7.84 44.43 7.76L44.43 7.76L44.43 7.76Q44.63 7.67 45.78 7.64L45.78 7.64L45.98 7.42L45.98 7.42Q50.23 2.51 51.88 2.51L51.88 2.51L51.88 2.51Q52.02 2.49 52.21 2.49L52.21 2.49L52.21 2.49Q53.17 2.49 53.17 2.95L53.17 2.95L53.17 2.95Q53.17 3.04 52.99 3.40L52.99 3.40L52.36 4.66L52.36 4.66Q51.91 5.56 51.49 6.48L51.49 6.48L51.49 6.48Q49.22 11.48 48.86 13.03L48.86 13.03L48.86 13.03Q48.86 13.15 48.57 13.15L48.57 13.15L48.57 13.15Q48.29 13.15 47.88 12.83L47.88 12.83L47.88 12.83Q47.47 12.52 47.47 12.28L47.47 12.28L47.47 12.28Q47.47 11.84 48.16 10.64L48.16 10.64L48.16 10.64Q48.85 9.44 48.85 9.07L48.85 9.07L48.85 9.07Q48.85 8.58 46.94 8.58L46.94 8.58L46.94 8.58Q46.66 8.58 46.07 8.61L46.07 8.61L45.54 9.31L45.54 9.31Q44.56 10.63 43.67 12.57L43.67 12.57L43.67 12.57Q43.51 12.92 42.73 12.92L42.73 12.92L42.73 12.92Q41.94 12.92 41.94 12.70L41.94 12.70L41.94 12.70Q41.94 12.54 42.82 11.35L42.82 11.35L42.82 11.35Q43.69 10.15 44.90 8.69L44.90 8.69L44.90 8.69Q44.69 8.72 44.37 8.75L44.37 8.75L44.37 8.75Q44.04 8.78 43.87 8.80L43.87 8.80L43.87 8.80Q43.69 8.82 43.68 8.82ZM49.49 7.01L49.49 7.01L49.49 7.01Q50.04 6.36 50.31 5.68L50.31 5.68L50.31 5.68Q50.58 5.01 50.58 4.77L50.58 4.77L50.58 4.77Q50.58 4.54 50.34 4.54L50.34 4.54L50.34 4.54Q49.92 4.54 48.96 5.43L48.96 5.43L48.96 5.43Q47.99 6.31 46.86 7.64L46.86 7.64L48.38 7.67L48.38 7.67Q48.94 7.67 49.49 7.01ZM58.51 12.43L58.51 12.43L58.51 12.43Q58.31 12.43 58.16 12.25L58.16 12.25L58.16 12.25Q58.02 12.07 57.97 11.89L57.97 11.89L57.93 11.70L57.93 11.70Q57.89 11.55 57.73 11.55L57.73 11.55L57.73 11.55Q57.57 11.55 57.44 11.65L57.44 11.65L57.44 11.65Q56.13 12.68 54.99 12.68L54.99 12.68L54.99 12.68Q53.54 12.68 53.54 10.74L53.54 10.74L53.54 10.74Q53.54 10.05 53.89 9.03L53.89 9.03L53.89 9.03Q54.25 8.01 54.92 6.90L54.92 6.90L54.92 6.90Q55.59 5.78 56.44 4.81L56.44 4.81L56.44 4.81Q57.29 3.84 58.40 3.21L58.40 3.21L58.40 3.21Q59.51 2.58 60.62 2.58L60.62 2.58L60.62 2.58Q61.22 2.58 61.60 2.79L61.60 2.79L61.60 2.79Q61.66 2.81 61.73 2.81L61.73 2.81L61.73 2.81Q61.80 2.81 61.87 2.77L61.87 2.77L61.87 2.77Q62.22 2.53 62.76 2.53L62.76 2.53L62.76 2.53Q63.31 2.53 63.31 2.80L63.31 2.80L63.31 2.80Q63.31 3.14 62.61 4.13L62.61 4.13L62.61 4.13Q61.52 5.68 60.82 5.68L60.82 5.68L60.82 5.68Q60.63 5.68 60.57 5.66L60.57 5.66L60.57 5.66Q60.51 5.63 60.51 5.54L60.51 5.54L60.51 5.54Q60.51 5.46 60.59 5.26L60.59 5.26L60.59 5.26Q60.87 4.68 60.87 4.29L60.87 4.29L60.87 4.29Q60.87 3.91 60.73 3.70L60.73 3.70L60.73 3.70Q60.58 3.50 60.12 3.50L60.12 3.50L60.12 3.50Q59.28 3.50 58.12 4.77L58.12 4.77L58.12 4.77Q56.97 6.03 56.14 7.69L56.14 7.69L56.14 7.69Q55.31 9.35 55.31 10.43L55.31 10.43L55.31 10.43Q55.31 11.34 56.07 11.34L56.07 11.34L56.07 11.34Q56.66 11.34 57.41 10.74L57.41 10.74L57.41 10.74Q58.16 10.14 58.64 9.44L58.64 9.44L58.64 9.44Q59.12 8.75 59.12 8.45L59.12 8.45L59.12 8.45Q59.12 8.15 58.83 8.03L58.83 8.03L58.83 8.03Q58.53 7.91 57.69 7.91L57.69 7.91L57.69 7.91Q57.53 7.91 57.53 7.78L57.53 7.78L57.53 7.78Q57.53 7.55 57.80 7.29L57.80 7.29L57.80 7.29Q58.07 7.04 58.32 7.01L58.32 7.01L58.32 7.01Q59.33 6.94 60.45 6.94L60.45 6.94L60.45 6.94Q61.56 6.94 61.56 7.14L61.56 7.14L61.56 7.14Q61.56 7.31 61.37 7.66L61.37 7.66L61.37 7.66Q61.18 8.01 61.06 8.23L61.06 8.23L61.06 8.23Q60.94 8.44 60.71 8.83L60.71 8.83L60.71 8.83Q60.48 9.21 60.34 9.44L60.34 9.44L60.34 9.44Q60.20 9.66 59.91 10.12L59.91 10.12L59.91 10.12Q59.63 10.57 59.46 10.85L59.46 10.85L59.46 10.85Q59.29 11.13 59.05 11.59L59.05 11.59L59.05 11.59Q58.80 12.05 58.69 12.24L58.69 12.24L58.69 12.24Q58.58 12.43 58.51 12.43ZM70.46 4.80L70.46 4.80L70.46 4.80Q70.46 5.59 70.15 6.59L70.15 6.59L70.15 6.59Q69.83 7.60 69.22 8.65L69.22 8.65L69.22 8.65Q68.60 9.70 67.80 10.59L67.80 10.59L67.80 10.59Q66.99 11.48 65.89 12.05L65.89 12.05L65.89 12.05Q64.79 12.61 63.62 12.61L63.62 12.61L63.62 12.61Q62.45 12.61 61.78 11.96L61.78 11.96L61.78 11.96Q61.11 11.31 61.11 10.16L61.11 10.16L61.11 10.16Q61.11 9.38 61.43 8.37L61.43 8.37L61.43 8.37Q61.74 7.36 62.36 6.31L62.36 6.31L62.36 6.31Q62.97 5.26 63.78 4.38L63.78 4.38L63.78 4.38Q64.58 3.50 65.68 2.93L65.68 2.93L65.68 2.93Q66.78 2.37 67.95 2.37L67.95 2.37L67.95 2.37Q69.12 2.37 69.79 3.01L69.79 3.01L69.79 3.01Q70.46 3.65 70.46 4.80ZM68.81 4.68L68.81 4.68L68.81 4.68Q68.81 3.14 67.69 3.14L67.69 3.14L67.69 3.14Q66.75 3.14 65.60 4.33L65.60 4.33L65.60 4.33Q64.44 5.52 63.64 7.20L63.64 7.20L63.64 7.20Q62.83 8.89 62.83 10.22L62.83 10.22L62.83 10.22Q62.83 11.76 63.95 11.76L63.95 11.76L63.95 11.76Q64.88 11.76 66.04 10.57L66.04 10.57L66.04 10.57Q67.20 9.38 68.01 7.69L68.01 7.69L68.01 7.69Q68.81 6.01 68.81 4.68ZM73.78 10.39L73.78 10.39L73.78 10.39Q73.78 10.39 69.52 10.40L69.52 10.40L69.52 10.40Q69.34 10.40 69.34 10.26L69.34 10.26L69.34 10.26Q69.34 10.08 69.64 9.74L69.64 9.74L69.64 9.74Q69.93 9.39 70.35 9.39L70.35 9.39L74.59 9.39L74.59 9.39Q74.79 9.39 74.79 9.52L74.79 9.52L74.79 9.52Q74.79 9.72 74.50 10.05L74.50 10.05L74.50 10.05Q74.21 10.39 73.78 10.39ZM80.49 12.43L80.49 12.43L80.49 12.43Q80.29 12.43 80.14 12.25L80.14 12.25L80.14 12.25Q80.00 12.07 79.95 11.89L79.95 11.89L79.91 11.70L79.91 11.70Q79.87 11.55 79.71 11.55L79.71 11.55L79.71 11.55Q79.55 11.55 79.42 11.65L79.42 11.65L79.42 11.65Q78.11 12.68 76.97 12.68L76.97 12.68L76.97 12.68Q75.52 12.68 75.52 10.74L75.52 10.74L75.52 10.74Q75.52 10.05 75.87 9.03L75.87 9.03L75.87 9.03Q76.23 8.01 76.90 6.90L76.90 6.90L76.90 6.90Q77.57 5.78 78.42 4.81L78.42 4.81L78.42 4.81Q79.27 3.84 80.38 3.21L80.38 3.21L80.38 3.21Q81.49 2.58 82.60 2.58L82.60 2.58L82.60 2.58Q83.20 2.58 83.58 2.79L83.58 2.79L83.58 2.79Q83.64 2.81 83.71 2.81L83.71 2.81L83.71 2.81Q83.78 2.81 83.85 2.77L83.85 2.77L83.85 2.77Q84.20 2.53 84.74 2.53L84.74 2.53L84.74 2.53Q85.29 2.53 85.29 2.80L85.29 2.80L85.29 2.80Q85.29 3.14 84.59 4.13L84.59 4.13L84.59 4.13Q83.50 5.68 82.80 5.68L82.80 5.68L82.80 5.68Q82.61 5.68 82.55 5.66L82.55 5.66L82.55 5.66Q82.49 5.63 82.49 5.54L82.49 5.54L82.49 5.54Q82.49 5.46 82.57 5.26L82.57 5.26L82.57 5.26Q82.85 4.68 82.85 4.29L82.85 4.29L82.85 4.29Q82.85 3.91 82.70 3.70L82.70 3.70L82.70 3.70Q82.56 3.50 82.10 3.50L82.10 3.50L82.10 3.50Q81.26 3.50 80.10 4.77L80.10 4.77L80.10 4.77Q78.95 6.03 78.12 7.69L78.12 7.69L78.12 7.69Q77.29 9.35 77.29 10.43L77.29 10.43L77.29 10.43Q77.29 11.34 78.05 11.34L78.05 11.34L78.05 11.34Q78.64 11.34 79.39 10.74L79.39 10.74L79.39 10.74Q80.14 10.14 80.62 9.44L80.62 9.44L80.62 9.44Q81.10 8.75 81.10 8.45L81.10 8.45L81.10 8.45Q81.10 8.15 80.81 8.03L80.81 8.03L80.81 8.03Q80.51 7.91 79.67 7.91L79.67 7.91L79.67 7.91Q79.51 7.91 79.51 7.78L79.51 7.78L79.51 7.78Q79.51 7.55 79.78 7.29L79.78 7.29L79.78 7.29Q80.05 7.04 80.30 7.01L80.30 7.01L80.30 7.01Q81.31 6.94 82.42 6.94L82.42 6.94L82.42 6.94Q83.54 6.94 83.54 7.14L83.54 7.14L83.54 7.14Q83.54 7.31 83.35 7.66L83.35 7.66L83.35 7.66Q83.16 8.01 83.04 8.23L83.04 8.23L83.04 8.23Q82.92 8.44 82.69 8.83L82.69 8.83L82.69 8.83Q82.46 9.21 82.32 9.44L82.32 9.44L82.32 9.44Q82.18 9.66 81.89 10.12L81.89 10.12L81.89 10.12Q81.61 10.57 81.44 10.85L81.44 10.85L81.44 10.85Q81.27 11.13 81.02 11.59L81.02 11.59L81.02 11.59Q80.78 12.05 80.67 12.24L80.67 12.24L80.67 12.24Q80.56 12.43 80.49 12.43ZM92.44 4.80L92.44 4.80L92.44 4.80Q92.44 5.59 92.13 6.59L92.13 6.59L92.13 6.59Q91.81 7.60 91.20 8.65L91.20 8.65L91.20 8.65Q90.58 9.70 89.77 10.59L89.77 10.59L89.77 10.59Q88.97 11.48 87.87 12.05L87.87 12.05L87.87 12.05Q86.77 12.61 85.60 12.61L85.60 12.61L85.60 12.61Q84.43 12.61 83.76 11.96L83.76 11.96L83.76 11.96Q83.09 11.31 83.09 10.16L83.09 10.16L83.09 10.16Q83.09 9.38 83.41 8.37L83.41 8.37L83.41 8.37Q83.72 7.36 84.34 6.31L84.34 6.31L84.34 6.31Q84.95 5.26 85.76 4.38L85.76 4.38L85.76 4.38Q86.56 3.50 87.66 2.93L87.66 2.93L87.66 2.93Q88.76 2.37 89.93 2.37L89.93 2.37L89.93 2.37Q91.10 2.37 91.77 3.01L91.77 3.01L91.77 3.01Q92.44 3.65 92.44 4.80ZM90.79 4.68L90.79 4.68L90.79 4.68Q90.79 3.14 89.67 3.14L89.67 3.14L89.67 3.14Q88.73 3.14 87.58 4.33L87.58 4.33L87.58 4.33Q86.42 5.52 85.62 7.20L85.62 7.20L85.62 7.20Q84.81 8.89 84.81 10.22L84.81 10.22L84.81 10.22Q84.81 11.76 85.93 11.76L85.93 11.76L85.93 11.76Q86.86 11.76 88.02 10.57L88.02 10.57L88.02 10.57Q89.18 9.38 89.98 7.69L89.98 7.69L89.98 7.69Q90.79 6.01 90.79 4.68Z"></path></g><!----><!----></svg>